# xmcd
#
# Track frame offsets:
#	162
#	15762
#	34662
#	60012
#	75762
#	94512
#	114162
#	127062
#	142962
#	158187
#
# Disc length: 2389 seconds
#
# Revision: 1
# Processed by: cddbd v1.4PL0 Copyright (c) Steve Scherf et al.
# Submitted via: EasyCDDAExtractor 5.0.6
#
DISCID=5e09530a
DTITLE=Dyango - Corazon de Bolero-cd2
DYEAR=1990
DGENRE=Boleros
TTITLE0=Un poco de ti
TTITLE1=Mienteme
TTITLE2=Europa
TTITLE3=Dos Gardenias
TTITLE4=Sin ti
TTITLE5=Camino verde
TTITLE6=Encadenados
TTITLE7=Cabaretera
TTITLE8=Sabra Dios
TTITLE9=Boca de miel
EXTD=
EXTT0=
EXTT1=
EXTT2=
EXTT3=
EXTT4=
EXTT5=
EXTT6=
EXTT7=
EXTT8=
EXTT9=
PLAYORDER=
